<svg width="6" height="9" viewBox="0 0 6 9" fill="none" xmlns="http://www.w3.org/2000/svg">
<path d="M3.83526 9H0V0H3.52429C3.93981 2.98243e-05 4.34664 0.143476 4.69672 0.413393C5.0468 0.68331 5.3255 1.06842 5.49991 1.52323C5.67431 1.97803 5.73712 2.48353 5.68093 2.98001C5.62473 3.47649 5.45188 3.94319 5.18278 4.325C5.53426 4.66398 5.78998 5.12601 5.91472 5.64748C6.03946 6.16896 6.0271 6.72424 5.87933 7.23689C5.73156 7.74954 5.45566 8.19436 5.0896 8.5101C4.72353 8.82585 4.28531 8.997 3.83526 9ZM1.24387 7.5H3.82696C3.94947 7.5 4.07079 7.4709 4.18397 7.41436C4.29715 7.35783 4.4 7.27496 4.48662 7.1705C4.57325 7.06603 4.64197 6.94201 4.68885 6.80552C4.73573 6.66903 4.75986 6.52274 4.75986 6.375C4.75986 6.22726 4.73573 6.08097 4.68885 5.94448C4.64197 5.80799 4.57325 5.68397 4.48662 5.5795C4.4 5.47504 4.29715 5.39217 4.18397 5.33564C4.07079 5.2791 3.94947 5.25 3.82696 5.25H1.24387V7.5ZM1.24387 3.75H3.52429C3.6468 3.75 3.76811 3.7209 3.8813 3.66436C3.99448 3.60783 4.09732 3.52496 4.18395 3.4205C4.27058 3.31603 4.33929 3.19201 4.38618 3.05552C4.43306 2.91903 4.45719 2.77274 4.45719 2.625C4.45719 2.47726 4.43306 2.33097 4.38618 2.19448C4.33929 2.05799 4.27058 1.93397 4.18395 1.8295C4.09732 1.72504 3.99448 1.64217 3.8813 1.58564C3.76811 1.5291 3.6468 1.5 3.52429 1.5H1.24387V3.75Z" fill="#212529"/>
</svg>
