<svg width="13" height="14" viewBox="0 0 13 14" fill="none" xmlns="http://www.w3.org/2000/svg">
<path d="M12.7391 7.26557L9.03176 3.55779C8.85755 3.38368 8.62133 3.28587 8.37503 3.28587C8.12873 3.28587 7.89251 3.38368 7.7183 3.55779L5.23065 6.04543L3.25001 0.5H2.32143L0 7H0.928573L1.3924 5.60714H4.17811L4.55094 6.72514L1.20064 10.0754C1.11438 10.1617 1.04595 10.264 0.999259 10.3767C0.95257 10.4894 0.928539 10.6102 0.928539 10.7322C0.928539 10.8541 0.95257 10.9749 0.999259 11.0876C1.04595 11.2003 1.11438 11.3027 1.20064 11.3889L3.31129 13.5H7.7638L12.7391 8.52425C12.8218 8.44159 12.8874 8.34345 12.9322 8.23542C12.977 8.1274 13 8.01161 13 7.89468C13 7.77774 12.977 7.66196 12.9322 7.55393C12.8874 7.44591 12.8218 7.34776 12.7391 7.26511V7.26557ZM1.70161 4.67857L2.78386 1.42857L3.86844 4.67857H1.70161ZM7.37983 12.5714H3.69572L1.85715 10.7319L4.78772 7.80182L8.46859 11.4822L7.37983 12.5714ZM9.12555 10.8257L5.44469 7.14532L8.37526 4.21429L12.0557 7.89468L9.12555 10.8257Z" fill="#212529"/>
</svg>
