<svg width="11" height="11" viewBox="0 0 11 11" fill="none" xmlns="http://www.w3.org/2000/svg">
<path d="M6.875 4.58333C7.14695 4.58333 7.41279 4.50269 7.63891 4.3516C7.86503 4.20052 8.04126 3.98577 8.14533 3.73452C8.2494 3.48327 8.27664 3.20681 8.22358 2.94008C8.17053 2.67336 8.03957 2.42836 7.84727 2.23606C7.65497 2.04376 7.40997 1.91281 7.14325 1.85975C6.87653 1.8067 6.60006 1.83393 6.34881 1.938C6.09756 2.04207 5.88282 2.21831 5.73173 2.44442C5.58064 2.67054 5.5 2.93638 5.5 3.20833C5.5 3.57301 5.64487 3.92274 5.90273 4.18061C6.16059 4.43847 6.51033 4.58333 6.875 4.58333ZM6.875 2.75C6.96565 2.75 7.05426 2.77688 7.12964 2.82724C7.20501 2.87761 7.26375 2.94919 7.29844 3.03294C7.33314 3.11669 7.34221 3.20884 7.32453 3.29775C7.30684 3.38666 7.26319 3.46832 7.19909 3.53242C7.13499 3.59652 7.05332 3.64018 6.96442 3.65786C6.87551 3.67554 6.78335 3.66647 6.6996 3.63178C6.61585 3.59709 6.54427 3.53834 6.49391 3.46297C6.44355 3.3876 6.41667 3.29898 6.41667 3.20833C6.41667 3.08678 6.46495 2.9702 6.55091 2.88424C6.63686 2.79829 6.75344 2.75 6.875 2.75Z" fill="#212529"/>
<path d="M10.0833 0H0.916667C0.673552 0 0.440394 0.0965771 0.268485 0.268485C0.0965771 0.440394 0 0.673552 0 0.916667V10.0833C0 10.3264 0.0965771 10.5596 0.268485 10.7315C0.440394 10.9034 0.673552 11 0.916667 11H10.0833C10.3264 11 10.5596 10.9034 10.7315 10.7315C10.9034 10.5596 11 10.3264 11 10.0833V0.916667C11 0.673552 10.9034 0.440394 10.7315 0.268485C10.5596 0.0965771 10.3264 0 10.0833 0ZM10.0833 10.0833H0.916667V7.33333L3.20833 5.04167L5.77042 7.60375C5.94217 7.77448 6.1745 7.87031 6.41667 7.87031C6.65884 7.87031 6.89117 7.77448 7.06292 7.60375L7.79167 6.875L10.0833 9.16667V10.0833ZM10.0833 7.86958L8.43792 6.22417C8.26617 6.05344 8.03384 5.95761 7.79167 5.95761C7.5495 5.95761 7.31717 6.05344 7.14542 6.22417L6.41667 6.95292L3.85458 4.39083C3.68283 4.2201 3.4505 4.12427 3.20833 4.12427C2.96616 4.12427 2.73383 4.2201 2.56208 4.39083L0.916667 6.03625V0.916667H10.0833V7.86958Z" fill="#212529"/>
</svg>
