<svg width="14" height="11" viewBox="0 0 14 11" fill="none" xmlns="http://www.w3.org/2000/svg">
<path d="M13.1777 0.843811C12.9179 0.576352 12.6093 0.364137 12.2694 0.219337C11.9296 0.0745371 11.5653 0 11.1973 0C10.8293 0 10.4649 0.0745371 10.1251 0.219337C9.78527 0.364137 9.47663 0.576352 9.21688 0.843811L9.87857 1.52279C10.052 1.34477 10.258 1.20356 10.4847 1.10722C10.7113 1.01088 10.9543 0.961295 11.1996 0.961295C11.4449 0.961295 11.6879 1.01088 11.9145 1.10722C12.1412 1.20356 12.3472 1.34477 12.5206 1.52279C12.6941 1.7008 12.8317 1.91214 12.9256 2.14473C13.0195 2.37731 13.0678 2.6266 13.0678 2.87835C13.0678 3.1301 13.0195 3.37939 12.9256 3.61198C12.8317 3.84456 12.6941 4.0559 12.5206 4.23391L8.79284 8.05914C8.4431 8.41865 7.9685 8.62088 7.47345 8.62133C6.9784 8.62178 6.50345 8.42041 6.15309 8.06153C5.80273 7.70264 5.60565 7.21564 5.60522 6.70765C5.60478 6.19967 5.80102 5.71231 6.15076 5.35279L6.80779 4.67381L6.15076 3.99484L5.48908 4.67381C5.22843 4.94035 5.02162 5.25705 4.88051 5.60578C4.73939 5.9545 4.66676 6.32837 4.66676 6.70596C4.66676 7.08355 4.73939 7.45743 4.88051 7.80615C5.02162 8.15487 5.22843 8.47158 5.48908 8.73811C6.01632 9.27221 6.72861 9.56973 7.46947 9.56532C7.83886 9.56688 8.20489 9.49331 8.5464 9.34886C8.88792 9.20442 9.19816 8.99196 9.45919 8.72377L13.187 4.89855C13.7093 4.35936 14.0017 3.62947 14 2.8692C13.9982 2.10893 13.7025 1.38047 13.1777 0.843811Z" fill="#212529"/>
<path d="M1.50033 9.47925C1.32633 9.30153 1.18826 9.09029 1.09404 8.85767C0.999832 8.62504 0.951333 8.3756 0.951333 8.12369C0.951333 7.87177 0.999832 7.62233 1.09404 7.38971C1.18826 7.15708 1.32633 6.94584 1.50033 6.76812L5.22813 2.9429C5.40132 2.76436 5.60718 2.62268 5.83388 2.526C6.06059 2.42933 6.30367 2.37956 6.54917 2.37956C6.79467 2.37956 7.03776 2.42933 7.26446 2.526C7.49116 2.62268 7.69702 2.76436 7.87021 2.9429C8.04311 3.12202 8.17922 3.33492 8.27046 3.569C8.36171 3.80308 8.40625 4.05357 8.40142 4.30564C8.40285 4.55849 8.35539 4.80912 8.26181 5.04303C8.16823 5.27694 8.03038 5.48948 7.85623 5.66837L6.86836 6.6964L7.53005 7.37538L8.51792 6.36169C9.04377 5.8221 9.33919 5.09025 9.33919 4.32715C9.33919 3.56405 9.04377 2.83221 8.51792 2.29261C7.99207 1.75302 7.27886 1.44988 6.53519 1.44988C5.79153 1.44988 5.07832 1.75302 4.55247 2.29261L0.824662 6.11784C0.563314 6.38445 0.355912 6.70146 0.214385 7.05062C0.0728585 7.39979 0 7.77422 0 8.15238C0 8.53054 0.0728585 8.90497 0.214385 9.25413C0.355912 9.60329 0.563314 9.9203 0.824662 10.1869C1.35533 10.7169 2.06924 11.0093 2.80972 10.9998C3.55672 11.0005 4.27368 10.698 4.80409 10.1582L4.14241 9.47925C3.96922 9.65779 3.76336 9.79947 3.53665 9.89615C3.30995 9.99283 3.06687 10.0426 2.82137 10.0426C2.57587 10.0426 2.33278 9.99283 2.10608 9.89615C1.87938 9.79947 1.67352 9.65779 1.50033 9.47925Z" fill="#212529"/>
</svg>
