<svg width="12" height="11" viewBox="0 0 12 11" fill="none" xmlns="http://www.w3.org/2000/svg">
<path d="M5.53846 8.25H12V9.16667H5.53846V8.25ZM5.53846 1.83333H12V2.75H5.53846V1.83333ZM1.84615 3.66667V0H0.923077V0.458333H0V1.375H0.923077V3.66667H0V4.58333H2.76923V3.66667H1.84615ZM2.76923 11H0V9.16667C0 8.92355 0.0972524 8.69039 0.270363 8.51849C0.443473 8.34658 0.678262 8.25 0.923077 8.25H1.84615V7.33333H0V6.41667H1.84615C2.09097 6.41667 2.32576 6.51324 2.49887 6.68515C2.67198 6.85706 2.76923 7.09022 2.76923 7.33333V8.25C2.76923 8.49312 2.67198 8.72627 2.49887 8.89818C2.32576 9.07009 2.09097 9.16667 1.84615 9.16667H0.923077V10.0833H2.76923V11Z" fill="#212529"/>
</svg>
