<svg width="10" height="9" viewBox="0 0 10 9" fill="none" xmlns="http://www.w3.org/2000/svg">
<path d="M3.33333 4.26316H0.879167C0.956604 3.6769 1.14075 3.11544 1.41983 2.61466C1.69891 2.11387 2.0668 1.68476 2.5 1.35474L3.24583 0.786316L2.7875 0L2.04167 0.568421C1.41387 1.04404 0.899045 1.68848 0.542888 2.44455C0.186732 3.20063 0.000252953 4.04497 0 4.90263V8.05263C0 8.30389 0.0877973 8.54486 0.244078 8.72252C0.400358 8.90019 0.61232 9 0.833333 9H3.33333C3.55435 9 3.76631 8.90019 3.92259 8.72252C4.07887 8.54486 4.16667 8.30389 4.16667 8.05263V5.21053C4.16667 4.95927 4.07887 4.7183 3.92259 4.54064C3.76631 4.36297 3.55435 4.26316 3.33333 4.26316ZM9.16667 4.26316H6.7125C6.78994 3.6769 6.97408 3.11544 7.25316 2.61466C7.53225 2.11387 7.90014 1.68476 8.33333 1.35474L9.07917 0.786316L8.625 0L7.875 0.568421C7.2472 1.04404 6.73238 1.68848 6.37622 2.44455C6.02007 3.20063 5.83359 4.04497 5.83333 4.90263V8.05263C5.83333 8.30389 5.92113 8.54486 6.07741 8.72252C6.23369 8.90019 6.44565 9 6.66667 9H9.16667C9.38768 9 9.59964 8.90019 9.75592 8.72252C9.9122 8.54486 10 8.30389 10 8.05263V5.21053C10 4.95927 9.9122 4.7183 9.75592 4.54064C9.59964 4.36297 9.38768 4.26316 9.16667 4.26316Z" fill="#212529"/>
</svg>
