<svg width="9" height="10" viewBox="0 0 9 10" fill="none" xmlns="http://www.w3.org/2000/svg">
<path d="M3.07563 2.82767H7.57056L6.24735 1.31585L6.76453 0.719727L8.97787 3.24926L6.76453 5.77879L6.24735 5.18224L7.56945 3.67085H3.07563C2.48862 3.67085 1.92565 3.93735 1.51056 4.41173C1.09548 4.88611 0.862292 5.5295 0.862292 6.20038C0.862292 6.87125 1.09548 7.51465 1.51056 7.98903C1.92565 8.46341 2.48862 8.72991 3.07563 8.72991H6.02675V9.57309H3.07563C2.29295 9.57309 1.54232 9.21775 0.988875 8.58524C0.435432 7.95274 0.124512 7.09488 0.124512 6.20038C0.124512 5.30588 0.435432 4.44802 0.988875 3.81551C1.54232 3.18301 2.29295 2.82767 3.07563 2.82767Z" fill="#212529"/>
</svg>
