<svg width="12" height="10" viewBox="0 0 12 10" fill="none" xmlns="http://www.w3.org/2000/svg">
<path d="M12 4.50692H6.978C6.75598 4.4473 6.53295 4.39153 6.309 4.33964C4.905 4.00807 4.111 3.76539 4.111 2.63037C4.0996 2.43444 4.12865 2.23825 4.19634 2.054C4.26403 1.86974 4.36892 1.70135 4.5045 1.55927C4.9292 1.21048 5.46115 1.01828 6.011 1.01498C7.426 0.980025 8.0785 1.4594 8.612 2.18845L9.4195 1.59922C9.04151 1.0571 8.5262 0.624914 7.92622 0.346807C7.32623 0.0686987 6.66307 -0.0453599 6.0045 0.0162839C5.19551 0.0214422 4.41509 0.315665 3.8045 0.845701C3.57307 1.08014 3.39219 1.35945 3.273 1.66639C3.15382 1.97333 3.09885 2.3014 3.1115 2.63037C3.08957 2.99034 3.15728 3.35013 3.30857 3.67759C3.45987 4.00505 3.69003 4.28998 3.9785 4.50692H0V5.50562H6.826C7.8095 5.79024 8.3975 6.16076 8.4125 7.18243C8.42875 7.40066 8.39877 7.61987 8.32451 7.82577C8.25025 8.03166 8.13337 8.21961 7.9815 8.37737C7.45241 8.79388 6.79507 9.01429 6.1215 9.00105C5.61876 8.98651 5.12591 8.85797 4.68023 8.62517C4.23456 8.39238 3.84773 8.06141 3.549 7.65731L2.7825 8.29847C3.17086 8.81535 3.67195 9.23716 4.24778 9.53192C4.82361 9.82668 5.45907 9.98667 6.106 9.99975H6.156C7.0794 10.0103 7.97561 9.68782 8.68 9.09143C8.93 8.8397 9.12435 8.53841 9.25052 8.20701C9.37669 7.87561 9.43187 7.52146 9.4125 7.16744C9.43116 6.56186 9.22655 5.9705 8.8375 5.50562H12V4.50692Z" fill="#212529"/>
</svg>
