<svg width="12" height="11" viewBox="0 0 12 11" fill="none" xmlns="http://www.w3.org/2000/svg">
<path d="M0 10.0435H12V11H0V10.0435ZM6 8.6087C5.07174 8.6087 4.1815 8.25598 3.52513 7.62814C2.86875 7.0003 2.5 6.14877 2.5 5.26087V0H3.5V5.26087C3.5 5.89508 3.76339 6.50332 4.23223 6.95178C4.70107 7.40023 5.33696 7.65217 6 7.65217C6.66304 7.65217 7.29893 7.40023 7.76777 6.95178C8.23661 6.50332 8.5 5.89508 8.5 5.26087V0H9.5V5.26087C9.5 6.14877 9.13125 7.0003 8.47487 7.62814C7.8185 8.25598 6.92826 8.6087 6 8.6087Z" fill="#212529"/>
</svg>
