<svg width="10" height="10" viewBox="0 0 10 10" fill="none" xmlns="http://www.w3.org/2000/svg">
<path d="M6.39409 2.73253H1.52459L2.95807 1.29945L2.39779 0.734375L0 3.13216L2.39779 5.52995L2.95807 4.96447L1.52579 3.53179H6.39409C7.03003 3.53179 7.63991 3.78441 8.08958 4.23409C8.53926 4.68376 8.79188 5.29364 8.79188 5.92958C8.79188 6.56551 8.53926 7.1754 8.08958 7.62507C7.63991 8.07474 7.03003 8.32736 6.39409 8.32736H3.19705V9.12662H6.39409C7.242 9.12662 8.05519 8.78979 8.65475 8.19023C9.25431 7.59067 9.59114 6.77749 9.59114 5.92958C9.59114 5.08167 9.25431 4.26849 8.65475 3.66892C8.05519 3.06936 7.242 2.73253 6.39409 2.73253Z" fill="#212529"/>
</svg>
