<svg width="12" height="10" viewBox="0 0 12 10" fill="none" xmlns="http://www.w3.org/2000/svg">
<path d="M1.38462 3C2.14932 3 2.76923 2.32843 2.76923 1.5C2.76923 0.671573 2.14932 0 1.38462 0C0.619913 0 0 0.671573 0 1.5C0 2.32843 0.619913 3 1.38462 3Z" fill="#212529"/>
<path d="M1.38462 10C2.14932 10 2.76923 9.32843 2.76923 8.5C2.76923 7.67157 2.14932 7 1.38462 7C0.619913 7 0 7.67157 0 8.5C0 9.32843 0.619913 10 1.38462 10Z" fill="#212529"/>
<path d="M5.53846 8H12V9H5.53846V8ZM5.53846 1H12V2H5.53846V1Z" fill="#212529"/>
</svg>
