   <svg
      width="9"
      height="10"
      viewBox="0 0 9 10"
      fill="none"
      xmlns="http://www.w3.org/2000/svg"
    >
      <path
        d="M6.5 6H2.5C2.36739 6 2.24021 6.05268 2.14645 6.14645C2.05268 6.24021 2 6.36739 2 6.5C2 6.63261 2.05268 6.75979 2.14645 6.85355C2.24021 6.94732 2.36739 7 2.5 7H6.5C6.63261 7 6.75979 6.94732 6.85355 6.85355C6.94732 6.75979 7 6.63261 7 6.5C7 6.36739 6.94732 6.24021 6.85355 6.14645C6.75979 6.05268 6.63261 6 6.5 6ZM6.5 4H3.5C3.36739 4 3.24021 4.05268 3.14645 4.14645C3.05268 4.24021 3 4.36739 3 4.5C3 4.63261 3.05268 4.75979 3.14645 4.85355C3.24021 4.94732 3.36739 5 3.5 5H6.5C6.63261 5 6.75979 4.94732 6.85355 4.85355C6.94732 4.75979 7 4.63261 7 4.5C7 4.36739 6.94732 4.24021 6.85355 4.14645C6.75979 4.05268 6.63261 4 6.5 4ZM8.5 1H7V0.5C7 0.367392 6.94732 0.240215 6.85355 0.146447C6.75979 0.0526784 6.63261 0 6.5 0C6.36739 0 6.24021 0.0526784 6.14645 0.146447C6.05268 0.240215 6 0.367392 6 0.5V1H5V0.5C5 0.367392 4.94732 0.240215 4.85355 0.146447C4.75979 0.0526784 4.63261 0 4.5 0C4.36739 0 4.24021 0.0526784 4.14645 0.146447C4.05268 0.240215 4 0.367392 4 0.5V1H3V0.5C3 0.367392 2.94732 0.240215 2.85355 0.146447C2.75979 0.0526784 2.63261 0 2.5 0C2.36739 0 2.24021 0.0526784 2.14645 0.146447C2.05268 0.240215 2 0.367392 2 0.5V1H0.5C0.367392 1 0.240215 1.05268 0.146447 1.14645C0.0526784 1.24021 0 1.36739 0 1.5V8.5C0 8.89782 0.158035 9.27936 0.43934 9.56066C0.720644 9.84196 1.10218 10 1.5 10H7.5C7.89782 10 8.27936 9.84196 8.56066 9.56066C8.84196 9.27936 9 8.89782 9 8.5V1.5C9 1.36739 8.94732 1.24021 8.85355 1.14645C8.75979 1.05268 8.63261 1 8.5 1ZM8 8.5C8 8.63261 7.94732 8.75979 7.85355 8.85355C7.75979 8.94732 7.63261 9 7.5 9H1.5C1.36739 9 1.24021 8.94732 1.14645 8.85355C1.05268 8.75979 1 8.63261 1 8.5V2H2V2.5C2 2.63261 2.05268 2.75979 2.14645 2.85355C2.24021 2.94732 2.36739 3 2.5 3C2.63261 3 2.75979 2.94732 2.85355 2.85355C2.94732 2.75979 3 2.63261 3 2.5V2H4V2.5C4 2.63261 4.05268 2.75979 4.14645 2.85355C4.24021 2.94732 4.36739 3 4.5 3C4.63261 3 4.75979 2.94732 4.85355 2.85355C4.94732 2.75979 5 2.63261 5 2.5V2H6V2.5C6 2.63261 6.05268 2.75979 6.14645 2.85355C6.24021 2.94732 6.36739 3 6.5 3C6.63261 3 6.75979 2.94732 6.85355 2.85355C6.94732 2.75979 7 2.63261 7 2.5V2H8V8.5Z"
        fill="black"
      />
    </svg>