<svg width="16" height="16" viewBox="0 0 16 16" fill="none" xmlns="http://www.w3.org/2000/svg">
<path d="M9.8326 7.11396L6.88956 4.15492C6.84123 4.10583 6.78372 4.06687 6.72035 4.04028C6.65699 4.01369 6.58903 4 6.52038 4C6.45174 4 6.38378 4.01369 6.32041 4.04028C6.25705 4.06687 6.19954 4.10583 6.1512 4.15492C6.05436 4.25304 6 4.38578 6 4.52414C6 4.6625 6.05436 4.79524 6.1512 4.89337L8.72506 7.51199L6.1512 10.1044C6.05436 10.2026 6 10.3353 6 10.4737C6 10.612 6.05436 10.7448 6.1512 10.8429C6.19936 10.8924 6.25679 10.9317 6.32016 10.9587C6.38353 10.9857 6.45159 10.9997 6.52038 11C6.58918 10.9997 6.65723 10.9857 6.72061 10.9587C6.78398 10.9317 6.84141 10.8924 6.88956 10.8429L9.8326 7.88384C9.88538 7.8348 9.92751 7.77527 9.95632 7.70902C9.98513 7.64277 10 7.57123 10 7.4989C10 7.42657 9.98513 7.35503 9.95632 7.28878C9.92751 7.22253 9.88538 7.16301 9.8326 7.11396Z" fill="#189B77"/>
<circle cx="8" cy="8" r="7.5" stroke="#189B77"/>
</svg>
